<svg xmlns="http://www.w3.org/2000/svg" viewBox="0 0 64 64" width="64" height="64">
  <rect width="64" height="64" rx="14" fill="#4f46e5"/>
  <path d="M20 18a6 6 0 0 0-6 6v16a6 6 0 0 0 6 6h10a3 3 0 0 1 0 6h-6a2 2 0 1 0 0 4h16a2 2 0 1 0 0-4h-6a3 3 0 0 1 0-6h10a6 6 0 0 0 6-6V24a6 6 0 0 0-6-6H20z" fill="none" stroke="#ffffff" stroke-width="4" stroke-linejoin="round" stroke-linecap="round"/>
  <line x1="26" y1="28" x2="42" y2="28" stroke="#ffffff" stroke-width="4" stroke-linecap="round"/>
  <line x1="26" y1="36" x2="42" y2="36" stroke="#ffffff" stroke-width="4" stroke-linecap="round"/>
</svg>
